<?xml version="1.0" encoding="UTF-8"?>
<!DOCTYPE svg PUBLIC "-//W3C//DTD SVG 1.1//EN" "http://www.w3.org/Graphics/SVG/1.1/DTD/svg11.dtd">
<svg width="160mm" height="90mm" viewBox="0 0 16000 9000" version="1.1" baseProfile="tiny" xmlns="http://www.w3.org/2000/svg" stroke-width="28.222" stroke-linejoin="round" xml:space="preserve">
 <path fill="rgb(255,255,255)" stroke="none" d="M 8000,8999 L 0,8999 0,0 15999,0 15999,8999 8000,8999 Z"/>
 <path fill="none" stroke="rgb(179,179,179)" stroke-linejoin="round" d="M 7637,7141 L 2119,7141 2119,393 13154,393 13154,7141 7637,7141 Z"/>
 <path fill="none" stroke="rgb(179,179,179)" stroke-linejoin="round" d="M 13154,7140 L 2119,7140"/>
 <path fill="none" stroke="rgb(179,179,179)" stroke-linejoin="round" d="M 13154,6465 L 2119,6465"/>
 <path fill="none" stroke="rgb(179,179,179)" stroke-linejoin="round" d="M 13154,5790 L 2119,5790"/>
 <path fill="none" stroke="rgb(179,179,179)" stroke-linejoin="round" d="M 13154,5115 L 2119,5115"/>
 <path fill="none" stroke="rgb(179,179,179)" stroke-linejoin="round" d="M 13154,4441 L 2119,4441"/>
 <path fill="none" stroke="rgb(179,179,179)" stroke-linejoin="round" d="M 13154,3766 L 2119,3766"/>
 <path fill="none" stroke="rgb(179,179,179)" stroke-linejoin="round" d="M 13154,3091 L 2119,3091"/>
 <path fill="none" stroke="rgb(179,179,179)" stroke-linejoin="round" d="M 13154,2416 L 2119,2416"/>
 <path fill="none" stroke="rgb(179,179,179)" stroke-linejoin="round" d="M 13154,1741 L 2119,1741"/>
 <path fill="none" stroke="rgb(179,179,179)" stroke-linejoin="round" d="M 13154,1066 L 2119,1066"/>
 <path fill="none" stroke="rgb(179,179,179)" stroke-linejoin="round" d="M 13154,391 L 2119,391"/>
 <path fill="none" stroke="rgb(179,179,179)" stroke-linejoin="round" d="M 2119,7290 L 2119,7140"/>
 <path fill="none" stroke="rgb(179,179,179)" stroke-linejoin="round" d="M 2119,7290 L 2119,7140"/>
 <path fill="none" stroke="rgb(179,179,179)" stroke-linejoin="round" d="M 3498,7290 L 3498,7140"/>
 <path fill="none" stroke="rgb(179,179,179)" stroke-linejoin="round" d="M 3498,7290 L 3498,7140"/>
 <path fill="none" stroke="rgb(179,179,179)" stroke-linejoin="round" d="M 4878,7290 L 4878,7140"/>
 <path fill="none" stroke="rgb(179,179,179)" stroke-linejoin="round" d="M 4878,7290 L 4878,7140"/>
 <path fill="none" stroke="rgb(179,179,179)" stroke-linejoin="round" d="M 6257,7290 L 6257,7140"/>
 <path fill="none" stroke="rgb(179,179,179)" stroke-linejoin="round" d="M 6257,7290 L 6257,7140"/>
 <path fill="none" stroke="rgb(179,179,179)" stroke-linejoin="round" d="M 7637,7290 L 7637,7140"/>
 <path fill="none" stroke="rgb(179,179,179)" stroke-linejoin="round" d="M 7637,7290 L 7637,7140"/>
 <path fill="none" stroke="rgb(179,179,179)" stroke-linejoin="round" d="M 9015,7290 L 9015,7140"/>
 <path fill="none" stroke="rgb(179,179,179)" stroke-linejoin="round" d="M 9015,7290 L 9015,7140"/>
 <path fill="none" stroke="rgb(179,179,179)" stroke-linejoin="round" d="M 10395,7290 L 10395,7140"/>
 <path fill="none" stroke="rgb(179,179,179)" stroke-linejoin="round" d="M 10395,7290 L 10395,7140"/>
 <path fill="none" stroke="rgb(179,179,179)" stroke-linejoin="round" d="M 11774,7290 L 11774,7140"/>
 <path fill="none" stroke="rgb(179,179,179)" stroke-linejoin="round" d="M 11774,7290 L 11774,7140"/>
 <path fill="none" stroke="rgb(179,179,179)" stroke-linejoin="round" d="M 13154,7290 L 13154,7140"/>
 <path fill="none" stroke="rgb(179,179,179)" stroke-linejoin="round" d="M 13154,7290 L 13154,7140"/>
 <path fill="none" stroke="rgb(179,179,179)" stroke-linejoin="round" d="M 2119,7140 L 13154,7140"/>
 <path fill="none" stroke="rgb(179,179,179)" stroke-linejoin="round" d="M 1969,7140 L 2119,7140"/>
 <path fill="none" stroke="rgb(179,179,179)" stroke-linejoin="round" d="M 1969,7140 L 2119,7140"/>
 <path fill="none" stroke="rgb(179,179,179)" stroke-linejoin="round" d="M 1969,6465 L 2119,6465"/>
 <path fill="none" stroke="rgb(179,179,179)" stroke-linejoin="round" d="M 1969,6465 L 2119,6465"/>
 <path fill="none" stroke="rgb(179,179,179)" stroke-linejoin="round" d="M 1969,5790 L 2119,5790"/>
 <path fill="none" stroke="rgb(179,179,179)" stroke-linejoin="round" d="M 1969,5790 L 2119,5790"/>
 <path fill="none" stroke="rgb(179,179,179)" stroke-linejoin="round" d="M 1969,5115 L 2119,5115"/>
 <path fill="none" stroke="rgb(179,179,179)" stroke-linejoin="round" d="M 1969,5115 L 2119,5115"/>
 <path fill="none" stroke="rgb(179,179,179)" stroke-linejoin="round" d="M 1969,4441 L 2119,4441"/>
 <path fill="none" stroke="rgb(179,179,179)" stroke-linejoin="round" d="M 1969,4441 L 2119,4441"/>
 <path fill="none" stroke="rgb(179,179,179)" stroke-linejoin="round" d="M 1969,3766 L 2119,3766"/>
 <path fill="none" stroke="rgb(179,179,179)" stroke-linejoin="round" d="M 1969,3766 L 2119,3766"/>
 <path fill="none" stroke="rgb(179,179,179)" stroke-linejoin="round" d="M 1969,3091 L 2119,3091"/>
 <path fill="none" stroke="rgb(179,179,179)" stroke-linejoin="round" d="M 1969,3091 L 2119,3091"/>
 <path fill="none" stroke="rgb(179,179,179)" stroke-linejoin="round" d="M 1969,2416 L 2119,2416"/>
 <path fill="none" stroke="rgb(179,179,179)" stroke-linejoin="round" d="M 1969,2416 L 2119,2416"/>
 <path fill="none" stroke="rgb(179,179,179)" stroke-linejoin="round" d="M 1969,1741 L 2119,1741"/>
 <path fill="none" stroke="rgb(179,179,179)" stroke-linejoin="round" d="M 1969,1741 L 2119,1741"/>
 <path fill="none" stroke="rgb(179,179,179)" stroke-linejoin="round" d="M 1969,1066 L 2119,1066"/>
 <path fill="none" stroke="rgb(179,179,179)" stroke-linejoin="round" d="M 1969,1066 L 2119,1066"/>
 <path fill="none" stroke="rgb(179,179,179)" stroke-linejoin="round" d="M 1969,391 L 2119,391"/>
 <path fill="none" stroke="rgb(179,179,179)" stroke-linejoin="round" d="M 1969,391 L 2119,391"/>
 <path fill="none" stroke="rgb(179,179,179)" stroke-linejoin="round" d="M 2119,7140 L 2119,391"/>
 <path fill="none" stroke="rgb(255,211,32)" stroke-width="80" stroke-linejoin="round" d="M 3498,419 L 6257,592 9015,885 11774,1418"/>
 <path fill="rgb(255,211,32)" stroke="none" d="M 3373,294 L 3498,544 3623,294 3373,294 Z"/>
 <path fill="none" stroke="rgb(255,211,32)" stroke-linejoin="round" d="M 3373,294 L 3498,544 3623,294 3373,294 Z"/>
 <path fill="rgb(255,211,32)" stroke="none" d="M 6132,467 L 6257,717 6382,467 6132,467 Z"/>
 <path fill="none" stroke="rgb(255,211,32)" stroke-linejoin="round" d="M 6132,467 L 6257,717 6382,467 6132,467 Z"/>
 <path fill="rgb(255,211,32)" stroke="none" d="M 8890,760 L 9015,1010 9140,760 8890,760 Z"/>
 <path fill="none" stroke="rgb(255,211,32)" stroke-linejoin="round" d="M 8890,760 L 9015,1010 9140,760 8890,760 Z"/>
 <path fill="rgb(255,211,32)" stroke="none" d="M 11649,1293 L 11774,1543 11899,1293 11649,1293 Z"/>
 <path fill="none" stroke="rgb(255,211,32)" stroke-linejoin="round" d="M 11649,1293 L 11774,1543 11899,1293 11649,1293 Z"/>
 <path fill="none" stroke="rgb(255,66,14)" stroke-width="80" stroke-linejoin="round" d="M 3498,418 L 6257,618 9015,986 11774,1601"/>
 <path fill="rgb(255,66,14)" stroke="none" d="M 3373,418 L 3498,543 3623,418 3498,293 3373,418 Z"/>
 <path fill="none" stroke="rgb(255,66,14)" stroke-linejoin="round" d="M 3373,418 L 3498,543 3623,418 3498,293 3373,418 Z"/>
 <path fill="rgb(255,66,14)" stroke="none" d="M 6132,618 L 6257,743 6382,618 6257,493 6132,618 Z"/>
 <path fill="none" stroke="rgb(255,66,14)" stroke-linejoin="round" d="M 6132,618 L 6257,743 6382,618 6257,493 6132,618 Z"/>
 <path fill="rgb(255,66,14)" stroke="none" d="M 8890,986 L 9015,1111 9140,986 9015,861 8890,986 Z"/>
 <path fill="none" stroke="rgb(255,66,14)" stroke-linejoin="round" d="M 8890,986 L 9015,1111 9140,986 9015,861 8890,986 Z"/>
 <path fill="rgb(255,66,14)" stroke="none" d="M 11649,1601 L 11774,1726 11899,1601 11774,1476 11649,1601 Z"/>
 <path fill="none" stroke="rgb(255,66,14)" stroke-linejoin="round" d="M 11649,1601 L 11774,1726 11899,1601 11774,1476 11649,1601 Z"/>
 <path fill="none" stroke="rgb(0,69,134)" stroke-width="80" stroke-linejoin="round" d="M 3498,698 L 6257,1516 9015,2321 11774,3167"/>
 <path fill="rgb(0,69,134)" stroke="none" d="M 3373,573 L 3373,823 3623,823 3623,573 3373,573 Z"/>
 <path fill="none" stroke="rgb(0,69,134)" stroke-linejoin="round" d="M 3373,573 L 3373,823 3623,823 3623,573 3373,573 Z"/>
 <path fill="rgb(0,69,134)" stroke="none" d="M 6132,1391 L 6132,1641 6382,1641 6382,1391 6132,1391 Z"/>
 <path fill="none" stroke="rgb(0,69,134)" stroke-linejoin="round" d="M 6132,1391 L 6132,1641 6382,1641 6382,1391 6132,1391 Z"/>
 <path fill="rgb(0,69,134)" stroke="none" d="M 8890,2196 L 8890,2446 9140,2446 9140,2196 8890,2196 Z"/>
 <path fill="none" stroke="rgb(0,69,134)" stroke-linejoin="round" d="M 8890,2196 L 8890,2446 9140,2446 9140,2196 8890,2196 Z"/>
 <path fill="rgb(0,69,134)" stroke="none" d="M 11649,3042 L 11649,3292 11899,3292 11899,3042 11649,3042 Z"/>
 <path fill="none" stroke="rgb(0,69,134)" stroke-linejoin="round" d="M 11649,3042 L 11649,3292 11899,3292 11899,3042 11649,3042 Z"/>
 <text class="TextShape"><tspan class="TextParagraph" font-family="Liberation Sans" font-size="353px" font-weight="400"><tspan class="TextPosition" x="1756" y="7723"><tspan fill="rgb(0,0,0)" stroke="none">0.15</tspan></tspan></tspan></text>
 <text class="TextShape"><tspan class="TextParagraph" font-family="Liberation Sans" font-size="353px" font-weight="400"><tspan class="TextPosition" x="3241" y="7723"><tspan fill="rgb(0,0,0)" stroke="none">0.2</tspan></tspan></tspan></text>
 <text class="TextShape"><tspan class="TextParagraph" font-family="Liberation Sans" font-size="353px" font-weight="400"><tspan class="TextPosition" x="4515" y="7723"><tspan fill="rgb(0,0,0)" stroke="none">0.25</tspan></tspan></tspan></text>
 <text class="TextShape"><tspan class="TextParagraph" font-family="Liberation Sans" font-size="353px" font-weight="400"><tspan class="TextPosition" x="6000" y="7723"><tspan fill="rgb(0,0,0)" stroke="none">0.3</tspan></tspan></tspan></text>
 <text class="TextShape"><tspan class="TextParagraph" font-family="Liberation Sans" font-size="353px" font-weight="400"><tspan class="TextPosition" x="7274" y="7723"><tspan fill="rgb(0,0,0)" stroke="none">0.35</tspan></tspan></tspan></text>
 <text class="TextShape"><tspan class="TextParagraph" font-family="Liberation Sans" font-size="353px" font-weight="400"><tspan class="TextPosition" x="8759" y="7723"><tspan fill="rgb(0,0,0)" stroke="none">0.4</tspan></tspan></tspan></text>
 <text class="TextShape"><tspan class="TextParagraph" font-family="Liberation Sans" font-size="353px" font-weight="400"><tspan class="TextPosition" x="10033" y="7723"><tspan fill="rgb(0,0,0)" stroke="none">0.45</tspan></tspan></tspan></text>
 <text class="TextShape"><tspan class="TextParagraph" font-family="Liberation Sans" font-size="353px" font-weight="400"><tspan class="TextPosition" x="11518" y="7723"><tspan fill="rgb(0,0,0)" stroke="none">0.5</tspan></tspan></tspan></text>
 <text class="TextShape"><tspan class="TextParagraph" font-family="Liberation Sans" font-size="353px" font-weight="400"><tspan class="TextPosition" x="12792" y="7723"><tspan fill="rgb(0,0,0)" stroke="none">0.55</tspan></tspan></tspan></text>
 <text class="TextShape"><tspan class="TextParagraph" font-family="Liberation Sans" font-size="353px" font-weight="400"><tspan class="TextPosition" x="1657" y="7262"><tspan fill="rgb(0,0,0)" stroke="none">0</tspan></tspan></tspan></text>
 <text class="TextShape"><tspan class="TextParagraph" font-family="Liberation Sans" font-size="353px" font-weight="400"><tspan class="TextPosition" x="1355" y="6587"><tspan fill="rgb(0,0,0)" stroke="none">0.1</tspan></tspan></tspan></text>
 <text class="TextShape"><tspan class="TextParagraph" font-family="Liberation Sans" font-size="353px" font-weight="400"><tspan class="TextPosition" x="1355" y="5912"><tspan fill="rgb(0,0,0)" stroke="none">0.2</tspan></tspan></tspan></text>
 <text class="TextShape"><tspan class="TextParagraph" font-family="Liberation Sans" font-size="353px" font-weight="400"><tspan class="TextPosition" x="1355" y="5237"><tspan fill="rgb(0,0,0)" stroke="none">0.3</tspan></tspan></tspan></text>
 <text class="TextShape"><tspan class="TextParagraph" font-family="Liberation Sans" font-size="353px" font-weight="400"><tspan class="TextPosition" x="1355" y="4562"><tspan fill="rgb(0,0,0)" stroke="none">0.4</tspan></tspan></tspan></text>
 <text class="TextShape"><tspan class="TextParagraph" font-family="Liberation Sans" font-size="353px" font-weight="400"><tspan class="TextPosition" x="1355" y="3887"><tspan fill="rgb(0,0,0)" stroke="none">0.5</tspan></tspan></tspan></text>
 <text class="TextShape"><tspan class="TextParagraph" font-family="Liberation Sans" font-size="353px" font-weight="400"><tspan class="TextPosition" x="1355" y="3212"><tspan fill="rgb(0,0,0)" stroke="none">0.6</tspan></tspan></tspan></text>
 <text class="TextShape"><tspan class="TextParagraph" font-family="Liberation Sans" font-size="353px" font-weight="400"><tspan class="TextPosition" x="1355" y="2537"><tspan fill="rgb(0,0,0)" stroke="none">0.7</tspan></tspan></tspan></text>
 <text class="TextShape"><tspan class="TextParagraph" font-family="Liberation Sans" font-size="353px" font-weight="400"><tspan class="TextPosition" x="1355" y="1862"><tspan fill="rgb(0,0,0)" stroke="none">0.8</tspan></tspan></tspan></text>
 <text class="TextShape"><tspan class="TextParagraph" font-family="Liberation Sans" font-size="353px" font-weight="400"><tspan class="TextPosition" x="1355" y="1187"><tspan fill="rgb(0,0,0)" stroke="none">0.9</tspan></tspan></tspan></text>
 <text class="TextShape"><tspan class="TextParagraph" font-family="Liberation Sans" font-size="353px" font-weight="400"><tspan class="TextPosition" x="1657" y="512"><tspan fill="rgb(0,0,0)" stroke="none">1</tspan></tspan></tspan></text>
 <path fill="none" stroke="rgb(0,69,134)" stroke-width="80" stroke-linejoin="round" d="M 13955,3974 L 14755,3974"/>
 <path fill="rgb(0,69,134)" stroke="none" d="M 14249,3869 L 14249,4079 14460,4079 14460,3869 14249,3869 Z"/>
 <path fill="none" stroke="rgb(0,69,134)" stroke-linejoin="round" d="M 14249,3869 L 14249,4079 14460,4079 14460,3869 14249,3869 Z"/>
 <path fill="none" stroke="rgb(255,66,14)" stroke-width="80" stroke-linejoin="round" d="M 13955,4499 L 14755,4499"/>
 <path fill="rgb(255,66,14)" stroke="none" d="M 14249,4499 L 14355,4603 14460,4499 14355,4394 14249,4499 Z"/>
 <path fill="none" stroke="rgb(255,66,14)" stroke-linejoin="round" d="M 14249,4499 L 14355,4603 14460,4499 14355,4394 14249,4499 Z"/>
 <path fill="none" stroke="rgb(255,211,32)" stroke-width="80" stroke-linejoin="round" d="M 13955,5023 L 14755,5023"/>
 <path fill="rgb(255,211,32)" stroke="none" d="M 14249,4918 L 14355,5128 14460,4918 14249,4918 Z"/>
 <path fill="none" stroke="rgb(255,211,32)" stroke-linejoin="round" d="M 14249,4918 L 14355,5128 14460,4918 14249,4918 Z"/>
 <text class="TextShape"><tspan class="TextParagraph" font-family="Liberation Sans" font-size="353px" font-weight="400"><tspan class="TextPosition" x="14855" y="4095"><tspan fill="rgb(0,0,0)" stroke="none">LS</tspan></tspan></tspan></text>
 <text class="TextShape"><tspan class="TextParagraph" font-family="Liberation Sans" font-size="353px" font-weight="400"><tspan class="TextPosition" x="14855" y="4619"><tspan fill="rgb(0,0,0)" stroke="none">ODR</tspan></tspan></tspan></text>
 <text class="TextShape"><tspan class="TextParagraph" font-family="Liberation Sans" font-size="353px" font-weight="400"><tspan class="TextPosition" x="14855" y="5144"><tspan fill="rgb(0,0,0)" stroke="none">MIX</tspan></tspan></tspan></text>
 <text class="TextShape"><tspan class="TextParagraph" font-family="Liberation Sans" font-size="318px" font-weight="400"><tspan class="TextPosition" x="6651" y="8394"><tspan fill="rgb(0,0,0)" stroke="none">Percent HI</tspan></tspan></tspan></text>
 <text class="TextShape"><tspan class="TextParagraph" font-family="Liberation Sans" font-size="318px" font-weight="400"><tspan class="TextPosition" x="848" y="4330" transform="translate(848,4330) rotate(-90) translate(-848,-4330)"><tspan fill="rgb(0,0,0)" stroke="none">QoS</tspan></tspan></tspan></text>
</svg>